<svg viewBox="0 0 48 48" xmlns="http://www.w3.org/2000/svg">
  <path fill="#EA4335" d="M24 10.2c3.4 0 6.3 1.2 8.7 3.2l6.6-6.6C35.1 2.8 29.9 1 24 1 14.5 1 6.3 6.7 2.5 14.9l7.7 6c1.8-5.3 6.8-9.1 12.7-10.7.4 0 .8 0 1.1 0z"/>
  <path fill="#4285F4" d="M46.9 24.5c0-1.6-.1-3.3-.4-4.8H24v9.1h12.9c-.6 3-2.3 5.4-4.9 7.1v5.9h7.9c4.6-4.3 7-10.5 7-17.3z"/>
  <path fill="#FBBC05" d="M10.2 28.9c-.4-1.5-.7-3.1-.7-4.8s.3-3.3.7-4.8l-7.7-6C1 16.5 0 20.2 0 24s1 7.5 2.5 10.7l7.7-5.8z"/>
  <path fill="#34A853" d="M24 48c6.5 0 12-2.1 16-5.8l-7.9-5.9c-2.2 1.5-5 2.3-8.1 2.3-6 0-11-4.3-12.7-10.1l-7.7 5.9C7 41.3 15.1 48 24 48z"/>
  <path fill="none" d="M0 0h48v48H0z"/>
</svg>